<svg width="105" height="32" viewBox="0 0 105 32" fill="none" xmlns="http://www.w3.org/2000/svg" aria-hidden="true" class="[display:inherit] w-full h-auto"><path d="M0.85376 16.204V19.8954C2.89218 19.8954 4.54489 21.548 4.54489 23.5867C4.54489 25.6254 2.89218 27.2781 0.85376 27.2781V30.9692H15.6188V27.2781C13.5801 27.2781 11.9277 25.6254 11.9277 23.5867C11.9277 21.548 13.5801 19.8954 15.6188 19.8954V16.204H0.85376Z" fill="#4FC6E3"></path><path d="M16.869 0.188878V14.9539C20.9455 14.9539 24.2506 11.6495 24.2514 7.57302C24.2523 11.6495 27.5573 14.9539 31.6342 14.9539V0.188878C27.5573 0.188878 24.2523 3.49301 24.2514 7.56951C24.2506 3.49301 20.9455 0.188878 16.869 0.188878Z" fill="#F14F1B"></path><path d="M0.85376 0.188627V14.9539H3.62242V10.3396H10.5435C10.6992 10.3396 10.8527 10.3316 11.0049 10.3179C13.5917 10.0845 15.619 7.91154 15.619 5.26415C15.619 2.61668 13.5917 0.443716 11.0049 0.210546C10.8527 0.196609 10.6992 0.188627 10.5435 0.188627H0.85376ZM3.62242 2.95716H10.5435C11.8178 2.95716 12.8508 3.99014 12.8508 5.26415C12.8508 6.53808 11.8178 7.57127 10.5435 7.57127H3.62242V2.95716Z" fill="black"></path><path d="M19.0143 16.204L31.6343 28.824V24.5802L23.2579 16.204H19.0143ZM27.5008 16.2024L31.6334 20.335V16.2024H27.5008ZM16.869 18.3036V22.5475L25.2911 30.9692H29.535L16.869 18.3036ZM16.869 26.791V30.9692H21.0474L16.869 26.791Z" fill="#4B2F95"></path><path d="M80.0032 28.7653C79.3753 28.7653 78.8744 29.2528 78.8744 29.8606C78.8744 30.4817 79.3753 30.9692 80.0032 30.9692C80.6376 30.9692 81.1252 30.4817 81.1252 29.8606C81.1252 29.2528 80.6376 28.7653 80.0032 28.7653ZM80.0032 28.9856C80.4907 28.9856 80.8447 29.3797 80.8447 29.8672C80.8447 30.3481 80.4907 30.7355 80.0098 30.7355C79.5156 30.7355 79.155 30.3481 79.155 29.8606C79.155 29.3797 79.5156 28.9856 80.0032 28.9856ZM79.9965 29.3062C79.8162 29.3062 79.676 29.3195 79.5758 29.3396V30.4349H79.8296V29.9941H79.9498C80.0901 29.9941 80.1568 30.0476 80.1769 30.1678C80.2103 30.2947 80.2304 30.3949 80.2637 30.4349H80.5375C80.5107 30.3949 80.4908 30.3281 80.4573 30.1611C80.424 30.0141 80.3638 29.934 80.2569 29.8939V29.8806C80.3905 29.8405 80.4841 29.747 80.4841 29.6268C80.4841 29.5199 80.4373 29.4332 80.3772 29.3864C80.2971 29.3396 80.2036 29.3062 79.9965 29.3062ZM79.9765 29.4866C80.1368 29.4866 80.2102 29.5533 80.2102 29.6534C80.2102 29.767 80.0967 29.8138 79.9565 29.8138H79.8362V29.4999C79.8629 29.4932 79.9097 29.4866 79.9765 29.4866ZM75.3022 25.2887C74.7706 25.2887 74.2931 25.4083 73.8832 25.6442C73.4741 25.8793 73.1511 26.2172 72.9229 26.6483C72.6937 27.0815 72.5773 27.594 72.5773 28.1715C72.5773 28.7411 72.6972 29.2475 72.9335 29.6766C73.169 30.104 73.5069 30.4401 73.9381 30.6755C74.3709 30.912 74.8868 31.0318 75.4715 31.0318C76.1404 31.0318 76.705 30.8484 77.15 30.4866C77.5676 30.1472 77.8369 29.7126 77.9518 29.1938H76.9022C76.8089 29.5059 76.6327 29.7531 76.3778 29.9291C76.1086 30.1153 75.7733 30.2095 75.3812 30.2095C74.8855 30.2095 74.4813 30.0528 74.18 29.7436C73.8807 29.4365 73.7131 29.0156 73.6819 28.4926V28.3343H78.0491C78.0646 28.2061 78.0724 28.0796 78.0724 27.957C78.0652 27.4191 77.9419 26.9435 77.7062 26.5446C77.471 26.1465 77.1443 25.8345 76.7353 25.6172C76.3244 25.3992 75.8425 25.2887 75.3024 25.2887H75.3022ZM75.3474 26.0997C75.795 26.0997 76.1723 26.226 76.4689 26.4752C76.7668 26.7254 76.9457 27.076 77.0009 27.5175L77.0131 27.6137H73.7169L73.7274 27.5188C73.7749 27.0919 73.9538 26.7446 74.2593 26.4866C74.5636 26.2297 74.9297 26.0997 75.3474 26.0997ZM69.6768 23.7424V25.3565H68.6723V26.2575H69.6768V29.4808C69.6768 29.9893 69.7957 30.3678 70.0302 30.6058C70.2645 30.8436 70.6485 30.9642 71.1714 30.9642H72.2598V30.0629H71.4198C71.1784 30.0629 71.002 30.0066 70.8953 29.8955C70.7882 29.784 70.736 29.6077 70.736 29.3566V26.2575H72.1243V25.3565H70.736V23.7424H69.6768ZM62.8601 25.3565V28.4537C62.8601 29.3589 63.0643 30.0221 63.467 30.4247C63.8698 30.8275 64.4039 31.0318 65.0544 31.0318C65.7764 31.0318 66.3542 30.7729 66.7716 30.2619L66.8885 30.1189L67.0444 30.9642H67.96V25.3565H66.9119V28.1377C66.9119 28.7486 66.773 29.2389 66.4992 29.5951C66.22 29.9579 65.829 30.1419 65.3367 30.1419C64.8669 30.1419 64.5061 29.9827 64.2643 29.6683C64.028 29.3609 63.9081 28.9105 63.9081 28.3295V25.3565H62.8601ZM59.655 23.7424V25.3565H58.6505V26.2575H59.655V29.4808C59.655 29.9893 59.7739 30.3678 60.0084 30.6058C60.2427 30.8436 60.6267 30.9642 61.1496 30.9642H62.2379V30.0629H61.398C61.1566 30.0629 60.98 30.0066 60.8734 29.8955C60.7663 29.784 60.7142 29.6077 60.7142 29.3566V26.2575H62.1025V25.3565H60.7142V23.7424H59.655ZM57.3913 23.0427C57.202 23.0427 57.0479 23.1031 56.9204 23.2272C56.7936 23.3508 56.7319 23.5024 56.7319 23.6908C56.7319 23.8791 56.7936 24.0308 56.9204 24.1543C57.0479 24.2785 57.202 24.3389 57.3913 24.3389C57.5806 24.3389 57.7346 24.2786 57.862 24.1544C57.989 24.0308 58.0508 23.8791 58.0508 23.6908C58.0508 23.5024 57.989 23.3508 57.8622 23.2272C57.7347 23.1031 57.5806 23.0427 57.3913 23.0427ZM56.8673 25.3563V30.9641H57.9153V25.3563H56.8673ZM53.6283 23.7424V25.3565H52.6238V26.2575H53.6283V29.4808C53.6283 29.9893 53.7472 30.3678 53.9818 30.6058C54.216 30.8436 54.6 30.9642 55.1229 30.9642H56.2112V30.0629H55.3713C55.1299 30.0629 54.9535 30.0066 54.8469 29.8955C54.7397 29.784 54.6876 29.6077 54.6876 29.3566V26.2575H56.0758V25.3565H54.6876V23.7424H53.6283ZM49.6716 25.2774C49.2416 25.2774 48.8523 25.3511 48.5147 25.4962C48.1808 25.64 47.9155 25.8449 47.7263 26.1056C47.5387 26.3641 47.4436 26.6643 47.4436 26.9977C47.4436 27.3505 47.5368 27.6331 47.7206 27.8379C47.9086 28.0472 48.1616 28.2023 48.4725 28.2987C48.7935 28.3983 49.2079 28.4788 49.7045 28.5381C50.075 28.5835 50.3534 28.6278 50.532 28.6696C50.7226 28.7141 50.8781 28.7914 50.994 28.899C51.117 29.0133 51.1794 29.1824 51.1794 29.4018C51.1794 29.6659 51.0496 29.8784 50.7939 30.0337C50.5518 30.1805 50.2351 30.2549 49.8524 30.2549C49.4218 30.2549 49.0647 30.1523 48.7913 29.9502C48.5349 29.7607 48.3842 29.518 48.3424 29.2277H47.3343C47.3685 29.7792 47.5983 30.2038 48.035 30.5235C48.4955 30.8608 49.1108 31.0318 49.8637 31.0318C50.3095 31.0318 50.7165 30.9598 51.0734 30.8178C51.4259 30.6775 51.7062 30.4741 51.9064 30.2132C52.1043 29.955 52.2047 29.6516 52.2047 29.3115C52.2047 28.928 52.1091 28.6221 51.9205 28.4021C51.7287 28.1784 51.4683 28.0124 51.1466 27.9087C50.8151 27.8019 50.3994 27.7215 49.911 27.6696C49.5415 27.6244 49.2696 27.5841 49.1016 27.5499C48.9234 27.5133 48.7728 27.447 48.6536 27.3525C48.5236 27.2494 48.4576 27.0958 48.4576 26.8962C48.4576 26.6324 48.5812 26.4218 48.8252 26.2704C49.0561 26.1271 49.36 26.0545 49.7281 26.0545C50.0985 26.0545 50.4117 26.1455 50.6587 26.3248C50.8886 26.4915 51.0289 26.7042 51.077 26.9574H52.0956C52.0414 26.4375 51.8131 26.0408 51.3997 25.747C50.9615 25.4354 50.3801 25.2774 49.6716 25.2774ZM44.1867 25.2887C43.4201 25.2887 42.82 25.5551 42.4026 26.0804L42.2849 26.2286L42.1287 25.3565H41.2248V30.9642H42.2729V28.1377C42.2729 27.5331 42.4179 27.0498 42.7041 26.7009C42.9945 26.3469 43.3985 26.1673 43.9045 26.1673C44.3807 26.1673 44.7487 26.3222 44.9979 26.6276C45.2428 26.9279 45.3669 27.3677 45.3669 27.9345V30.9642H46.4263V27.8669C46.4263 26.9622 46.2167 26.2992 45.8032 25.8965C45.3891 25.4932 44.8451 25.2887 44.1867 25.2887ZM39.0128 23.2345V30.9641H40.1397V23.2345H39.0128ZM98.4392 13.7673C97.6727 13.7673 97.0724 14.0337 96.6551 14.559L96.5374 14.7072L96.3811 13.835H95.4773V19.4428H96.5252V16.6164C96.5252 16.0118 96.6704 15.5283 96.9566 15.1795C97.247 14.8255 97.651 14.6459 98.157 14.6459C98.6333 14.6459 99.0011 14.8009 99.2503 15.1063C99.4953 15.4066 99.6194 15.8464 99.6194 16.4132V19.4428H100.679V16.3454C100.679 15.4408 100.469 14.7778 100.056 14.3751C99.6415 13.9718 99.0976 13.7673 98.4392 13.7673ZM91.7804 13.7673C91.2488 13.7673 90.7713 13.887 90.3614 14.1229C89.9523 14.358 89.6293 14.6959 89.4011 15.127C89.1719 15.5602 89.0554 16.0727 89.0554 16.6502C89.0554 17.2198 89.1753 17.7261 89.4116 18.1552C89.6471 18.5825 89.985 18.9187 90.4161 19.1541C90.849 19.3906 91.3649 19.5104 91.9496 19.5104C92.6185 19.5104 93.1832 19.3271 93.6282 18.9653C94.0458 18.6259 94.3151 18.1913 94.43 17.6725H93.3803C93.2869 17.9846 93.1107 18.2318 92.8559 18.4078C92.5867 18.594 92.2514 18.6883 91.8593 18.6883C91.3635 18.6883 90.9594 18.5314 90.6581 18.2222C90.3588 17.9151 90.1912 17.4943 90.16 16.9713V16.813H94.5271C94.5426 16.6848 94.5504 16.5583 94.5504 16.4357C94.5431 15.8978 94.4199 15.4222 94.1842 15.0233C93.9489 14.6252 93.6224 14.3132 93.2134 14.0959C92.8025 13.8779 92.3205 13.7673 91.7805 13.7673H91.7804ZM91.8255 14.5783C92.2731 14.5783 92.6504 14.7046 92.9471 14.9538C93.2449 15.204 93.4239 15.5547 93.4791 15.9962L93.4912 16.0923H90.1949L90.2055 15.9974C90.253 15.5705 90.432 15.2233 90.7375 14.9653C91.0418 14.7085 91.4078 14.5783 91.8255 14.5783ZM82.3789 13.7673C81.6961 13.7745 81.1489 14.0404 80.7538 14.5577L80.6361 14.7119L80.4789 13.835H79.5751V19.4428H80.623V16.4357C80.623 15.8992 80.7528 15.4637 81.0084 15.1412C81.2688 14.8126 81.6235 14.6459 82.0628 14.6459C82.4871 14.6459 82.8153 14.7879 83.0384 15.0676C83.2567 15.3415 83.3674 15.7486 83.3674 16.2777V19.4428H84.4267V16.4019C84.4267 15.8649 84.5566 15.4344 84.8129 15.1229C85.0733 14.8064 85.4315 14.6459 85.8777 14.6459C86.3026 14.6459 86.6291 14.7902 86.8484 15.0744C87.0623 15.3519 87.1709 15.7567 87.1709 16.2777V19.4428H88.2187V16.2664C88.2187 15.3908 88.0257 14.7482 87.6448 14.3566C87.2645 13.9656 86.7651 13.7673 86.16 13.7673C85.7104 13.7673 85.3218 13.8568 85.0051 14.0331C84.6885 14.2092 84.4295 14.4593 84.235 14.7762L84.152 14.9114L84.0847 14.7678C83.9277 14.4324 83.7005 14.1794 83.4092 14.016C83.1153 13.851 82.7686 13.7673 82.3789 13.7673ZM75.8782 13.7673C75.3466 13.7673 74.8691 13.887 74.4592 14.1229C74.0502 14.358 73.7271 14.6959 73.4989 15.127C73.2697 15.5602 73.1534 16.0727 73.1534 16.6502C73.1534 17.2198 73.2732 17.7261 73.5096 18.1552C73.745 18.5825 74.0828 18.9187 74.514 19.1541C74.9468 19.3906 75.4627 19.5104 76.0474 19.5104C76.7163 19.5104 77.281 19.3271 77.726 18.9653C78.1436 18.6259 78.4129 18.1913 78.5279 17.6725H77.4781C77.3848 17.9846 77.2087 18.2318 76.9538 18.4078C76.6847 18.594 76.3493 18.6883 75.9572 18.6883C75.4615 18.6883 75.0572 18.5314 74.7559 18.2222C74.4566 17.9151 74.289 17.4943 74.2578 16.9713V16.813H78.6249C78.6404 16.6848 78.6482 16.5583 78.6482 16.4357C78.641 15.8978 78.5179 15.4222 78.2821 15.0233C78.0469 14.6252 77.7202 14.3132 77.3112 14.0959C76.9003 13.8779 76.4183 13.7673 75.8783 13.7673H75.8782ZM75.9233 14.5783C76.3709 14.5783 76.7482 14.7046 77.0449 14.9538C77.3427 15.204 77.5217 15.5547 77.577 15.9962L77.589 16.0923H74.2928L74.3033 15.9974C74.3508 15.5705 74.5299 15.2233 74.8355 14.9653C75.1397 14.7085 75.5056 14.5783 75.9233 14.5783ZM69.2419 13.7673C68.7406 13.7673 68.2843 13.8868 67.8858 14.1222C67.4875 14.3576 67.1698 14.6938 66.9414 15.1216C66.7123 15.5509 66.596 16.0539 66.596 16.6164C66.596 17.2013 66.7105 17.7138 66.9361 18.1395C67.1606 18.5631 67.476 18.8933 67.8736 19.1211C68.2723 19.3495 68.7327 19.4653 69.2419 19.4653C70.0541 19.4653 70.6476 19.1677 71.0557 18.5554L71.2122 18.3204V19.2461C71.2122 20.3737 70.6253 20.9456 69.4676 20.9456C69.0239 20.9456 68.655 20.8516 68.3712 20.6665C68.1012 20.4901 67.9202 20.2425 67.8325 19.9297H66.7519C66.82 20.4961 67.0781 20.943 67.5197 21.2589C67.9917 21.5965 68.6167 21.7678 69.3774 21.7678C70.3586 21.7678 71.0908 21.5495 71.5539 21.1191C72.015 20.6902 72.2491 20.0753 72.2491 19.2912V13.835H71.3471L71.1891 14.888L71.0663 14.699C70.8794 14.4116 70.6315 14.1819 70.3295 14.0164C70.0277 13.8512 69.6618 13.7673 69.2419 13.7673ZM69.4452 14.6235C69.9728 14.6235 70.4047 14.8137 70.7288 15.1891C71.0497 15.5608 71.2122 16.0487 71.2122 16.6389C71.2122 17.2146 71.0494 17.6912 70.7281 18.0555C70.4042 18.423 69.9725 18.6092 69.4452 18.6092C68.9176 18.6092 68.4858 18.421 68.1616 18.0496C67.8406 17.6815 67.6779 17.1994 67.6779 16.6164C67.6779 16.0333 67.8407 15.5513 68.1616 15.1832C68.4857 14.8119 68.9175 14.6235 69.4452 14.6235ZM57.4367 13.7673C56.6701 13.7673 56.0699 14.0337 55.6526 14.559L55.5347 14.7072L55.3787 13.835H54.4748V19.4428H55.5227V16.6164C55.5227 16.0118 55.6678 15.5283 55.954 15.1795C56.2444 14.8255 56.6484 14.6459 57.1545 14.6459C57.6307 14.6459 57.9986 14.8009 58.2478 15.1063C58.4928 15.4066 58.6169 15.8464 58.6169 16.4132V19.4428H59.6762V16.3456C59.6762 15.4408 59.4666 14.7778 59.0532 14.3751C58.6391 13.9718 58.0951 13.7673 57.4367 13.7673ZM50.7891 13.7673C50.0807 13.7673 49.5012 13.9234 49.0666 14.2313C48.6629 14.5172 48.4209 14.9184 48.3464 15.4247H49.3767C49.4376 15.1786 49.5832 14.9768 49.8103 14.8241C50.0531 14.661 50.3634 14.5783 50.7326 14.5783C51.1499 14.5783 51.4832 14.6778 51.7235 14.8741C51.969 15.0745 52.0935 15.353 52.0935 15.7022V16.1375H50.552C49.7698 16.1375 49.1682 16.293 48.764 16.5998C48.3614 16.9053 48.1659 17.3316 48.1659 17.9031C48.1659 18.4063 48.3468 18.7903 48.7194 19.0768C49.0934 19.3646 49.5998 19.5105 50.2246 19.5105C51.0367 19.5105 51.6373 19.1982 52.0607 18.5557L52.2176 18.3176V18.6028C52.2176 18.8781 52.2923 19.0888 52.4396 19.2293C52.5879 19.3709 52.8414 19.4428 53.1932 19.4428H53.7509V18.5529H53.5995C53.2969 18.5529 53.1302 18.3781 53.1302 18.061V15.7812C53.1302 15.1332 52.9275 14.631 52.5279 14.2885C52.1245 13.9427 51.5395 13.7673 50.7891 13.7673ZM50.4955 16.8695H52.0935V17.1581C52.0856 17.6325 51.9306 18.0173 51.6327 18.3032C51.3354 18.5886 50.9187 18.7335 50.3941 18.7335C50.045 18.7335 49.7633 18.6513 49.5568 18.4895C49.3441 18.3227 49.2364 18.0987 49.2364 17.824C49.2364 17.5104 49.3507 17.2687 49.5765 17.1057C49.7934 16.9489 50.1027 16.8695 50.4955 16.8695ZM39.0128 11.7132V19.4428H40.0946V13.2796L42.6078 19.4428H43.5876L46.1008 13.2796V19.4428H47.1825V11.7132H45.6782L43.1378 18.0753L40.5515 11.7132H39.0128ZM70.6365 0.699649V2.31363H69.6318V3.21493H70.6365V6.43813C70.6365 6.94662 70.7554 7.32508 70.9899 7.56313C71.2242 7.80083 71.6081 7.92134 72.1311 7.92134H73.2194V7.02004H72.3794C72.1346 7.02004 71.9631 6.9654 71.8549 6.85271C71.7478 6.74112 71.6957 6.56483 71.6957 6.31388V3.21493H73.084V2.31363H71.6957V0.699649H70.6365ZM66.7363 2.24599C66.1743 2.24599 65.6737 2.36571 65.2484 2.60195C64.8247 2.83743 64.4925 3.17344 64.2607 3.6007C64.0279 4.03002 63.91 4.5365 63.91 5.10621C63.91 5.67644 64.0263 6.18699 64.2557 6.624C64.4837 7.05845 64.8122 7.39804 65.232 7.63327C65.6536 7.86943 66.1483 7.9891 66.7026 7.9891C67.4088 7.9891 67.9943 7.80382 68.4431 7.43838C68.8675 7.0926 69.1433 6.61427 69.2635 6.01566H68.1918C68.1064 6.34134 67.9389 6.6063 67.6928 6.80373C67.4301 7.01476 67.0969 7.12174 66.7026 7.12174C66.1891 7.12174 65.7702 6.93087 65.4573 6.55473C65.1484 6.18322 64.9918 5.69585 64.9918 5.10621C64.9918 4.52384 65.1484 4.0421 65.4576 3.67435C65.7705 3.30206 66.1893 3.11335 66.7026 3.11335C67.0817 3.11335 67.4071 3.21818 67.6696 3.4251C67.9156 3.61885 68.0867 3.8783 68.1788 4.19689H69.263C69.1429 3.61256 68.8711 3.14165 68.4538 2.79622C68.0128 2.43103 67.4348 2.24599 66.7363 2.24599ZM60.371 2.24599C59.8395 2.24599 59.362 2.36555 58.9521 2.60145C58.543 2.83668 58.22 3.1746 57.9918 3.60571C57.7626 4.03871 57.6462 4.55122 57.6462 5.12888C57.6462 5.69843 57.7661 6.20471 58.0024 6.63377C58.2379 7.06112 58.5758 7.39729 59.0069 7.63277C59.4399 7.86918 59.9559 7.9891 60.5404 7.9891C61.2093 7.9891 61.7739 7.80566 62.2189 7.44389C62.6365 7.10444 62.9058 6.66981 63.0207 6.15105H61.9711C61.8778 6.46314 61.7016 6.7103 61.4467 6.88652C61.1775 7.07258 60.8422 7.16696 60.4501 7.16696C59.9544 7.16696 59.5502 7.01009 59.2489 6.7009C58.9496 6.3936 58.7819 5.97276 58.7507 5.4499L58.7505 5.29171H63.1177C63.1331 5.16345 63.1411 5.03681 63.1411 4.91445C63.1338 4.37646 63.0106 3.90084 62.7748 3.50188C62.5395 3.10369 62.2129 2.79171 61.8039 2.57452C61.3932 2.35657 60.9113 2.24599 60.371 2.24599ZM60.4161 3.05686C60.8638 3.05686 61.2411 3.18333 61.5378 3.43249C61.8357 3.68268 62.0146 4.03328 62.0698 4.47482L62.0818 4.57089H58.7858L58.7963 4.47608C58.8438 4.04915 59.0227 3.70181 59.3283 3.44376C59.6326 3.18699 59.9984 3.05686 60.4161 3.05686ZM55.5921 2.31375V8.55987C55.5921 8.79988 55.5347 8.98129 55.4215 9.09895H55.4214C55.3073 9.21746 55.1309 9.27756 54.8971 9.27756H54.328V10.1786H55.1455C56.1512 10.1786 56.6401 9.67875 56.6401 8.6503V2.31375H55.5921ZM51.7372 2.24599C51.1752 2.24599 50.6709 2.3677 50.238 2.60772C49.8068 2.84687 49.4687 3.18666 49.2331 3.61786C48.9967 4.05077 48.8769 4.55542 48.8769 5.11761C48.8769 5.68733 48.9967 6.19556 49.2331 6.62838C49.4686 7.05941 49.8066 7.39737 50.2377 7.63277C50.6706 7.86918 51.175 7.9891 51.7372 7.9891C52.2993 7.9891 52.8039 7.86918 53.2369 7.63277C53.6679 7.39729 54.0056 7.05932 54.241 6.62838C54.4775 6.19547 54.5975 5.68724 54.5975 5.11761C54.5975 4.5555 54.4775 4.05085 54.241 3.61786C54.0056 3.18675 53.6676 2.84692 53.2363 2.60759C52.8035 2.36767 52.2991 2.24599 51.7372 2.24599ZM51.7372 3.11335C52.2722 3.11335 52.7097 3.30359 53.0375 3.67861C53.3623 4.05047 53.527 4.53464 53.527 5.11761C53.527 5.70058 53.3623 6.18468 53.0375 6.55636C52.7098 6.93156 52.2722 7.12174 51.7372 7.12174C51.2019 7.12174 50.7662 6.93144 50.4422 6.55599C50.1214 6.18439 49.9587 5.70041 49.9587 5.11761C49.9587 4.53481 50.1214 4.05088 50.4422 3.67911C50.7662 3.30374 51.2019 3.11335 51.7372 3.11335ZM45.5587 2.31363V7.92134H46.6066V5.10621C46.6066 4.58669 46.7256 4.15076 46.9604 3.81062C47.202 3.46022 47.5938 3.28257 48.1254 3.28257H48.5818V2.31363H48.3965C47.9699 2.31363 47.6273 2.38766 47.3786 2.53344C47.1288 2.67957 46.9224 2.88437 46.7651 3.14191L46.6436 3.34068L46.4835 2.31363H45.5587ZM39.0128 0.191759V7.92134H40.1397V5.05461H42.0423C42.5681 5.05461 43.0375 4.95317 43.4374 4.75326C43.8344 4.5548 44.1454 4.26959 44.3617 3.90569C44.5784 3.54084 44.6883 3.10951 44.6883 2.62325C44.6883 2.13715 44.5784 1.70553 44.3617 1.34068C44.1454 0.976775 43.8344 0.691692 43.4374 0.493236C43.0374 0.293242 42.568 0.191759 42.0423 0.191759H39.0128ZM40.1397 1.14942H41.9408C42.4272 1.14942 42.8188 1.28235 43.1048 1.54434C43.3927 1.80838 43.5388 2.17136 43.5388 2.62325C43.5388 3.06753 43.3907 3.42859 43.099 3.69639C42.8093 3.96223 42.4159 4.09694 41.9295 4.09694H40.1397V1.14942ZM33.3098 28.7601C32.6819 28.7601 32.181 29.2477 32.181 29.8555C32.181 30.4766 32.6819 30.9641 33.3098 30.9641C33.9442 30.9641 34.4318 30.4766 34.4318 29.8555C34.4318 29.2477 33.9442 28.7601 33.3098 28.7601ZM33.3098 28.9805C33.7973 28.9805 34.1514 29.3746 34.1514 29.8621C34.1514 30.343 33.7973 30.7303 33.3164 30.7303C32.8222 30.7303 32.4616 30.343 32.4616 29.8555C32.4616 29.3746 32.8223 28.9805 33.3098 28.9805ZM33.3032 29.3011C33.1228 29.3011 32.9824 29.3144 32.8823 29.3344V30.4297H33.1361V29.989H33.2563C33.3965 29.989 33.4633 30.0425 33.4834 30.1627C33.5167 30.2896 33.5368 30.3897 33.5702 30.4297H33.8441C33.8174 30.3897 33.7973 30.3229 33.7638 30.1559C33.7305 30.009 33.6704 29.9289 33.5636 29.8888V29.8755C33.6971 29.8354 33.7906 29.7418 33.7906 29.6216C33.7906 29.5147 33.7439 29.428 33.6838 29.3813C33.6037 29.3345 33.5102 29.3011 33.3032 29.3011ZM33.283 29.4815C33.4433 29.4815 33.5168 29.5482 33.5168 29.6483C33.5168 29.7618 33.4032 29.8086 33.263 29.8086H33.1428V29.4947C33.1695 29.4881 33.2162 29.4815 33.283 29.4815ZM102.159 12.2211V13.835H101.154V14.7362H102.159V17.9594C102.159 18.4679 102.278 18.8464 102.512 19.0844C102.746 19.3222 103.13 19.4428 103.653 19.4428H104.742V18.5416H103.902C103.66 18.5416 103.484 18.4852 103.377 18.3741C103.27 18.2626 103.218 18.0863 103.218 17.8352V14.7362H104.606V13.835H103.218V12.2211H102.159ZM56.116 0C55.9268 0 55.7728 0.0603417 55.6452 0.184494C55.5183 0.308048 55.4566 0.45968 55.4566 0.648046C55.4566 0.83684 55.5167 0.98875 55.6405 1.11247C55.7641 1.23611 55.9197 1.29622 56.116 1.29622C56.3049 1.29622 56.4568 1.23611 56.5805 1.11247C56.7041 0.98875 56.7643 0.83684 56.7643 0.648046C56.7643 0.459253 56.7041 0.307382 56.5805 0.183742C56.4568 0.0601032 56.3049 0 56.116 0ZM63.1813 13.7673C62.4729 13.7673 61.8933 13.9234 61.4587 14.2313C61.0551 14.5172 60.8131 14.9184 60.7387 15.4247H61.7688C61.8297 15.1786 61.9754 14.9768 62.2025 14.8241C62.4452 14.661 62.7556 14.5783 63.1248 14.5783C63.542 14.5783 63.8753 14.6778 64.1157 14.8741C64.3611 15.0745 64.4856 15.353 64.4856 15.7022V16.1375H62.9442C62.162 16.1375 61.5604 16.293 61.1562 16.5998C60.7537 16.9053 60.558 17.3316 60.558 17.9031C60.558 18.4063 60.7391 18.7903 61.1115 19.0768C61.4857 19.3646 61.9922 19.5105 62.6169 19.5105C63.429 19.5105 64.0295 19.1982 64.453 18.5557L64.6098 18.3176V18.6028C64.6098 18.8781 64.6845 19.0888 64.8317 19.2293C64.9801 19.3709 65.2336 19.4428 65.5854 19.4428H66.1431V18.5529H65.9917C65.6891 18.5529 65.5225 18.3781 65.5225 18.061V15.7812C65.5225 15.1332 65.3197 14.631 64.9201 14.2885C64.5166 13.9427 63.9317 13.7673 63.1813 13.7673ZM62.8878 16.8695H64.4856V17.1581C64.4778 17.6325 64.3228 18.0173 64.0249 18.3032C63.7276 18.5886 63.3108 18.7335 62.7863 18.7335C62.4371 18.7335 62.1556 18.6513 61.9491 18.4895C61.7364 18.3227 61.6286 18.0987 61.6286 17.824C61.6286 17.5104 61.7431 17.2687 61.9686 17.1057C62.1856 16.9489 62.4949 16.8695 62.8878 16.8695Z" fill="black"></path></svg>
