<svg width="32" height="32" viewBox="0 0 32 32" fill="none" xmlns="http://www.w3.org/2000/svg" aria-hidden="true" class="[display:inherit] w-[--scale-32] h-[--scale-32] shrink-0"><g clip-path="url(#clip0_166_3__R5le_)"><path d="M15.9989 0L20.1758 5.9177L27.3138 4.68615L26.0823 11.8242L32 15.9989L26.0823 20.1758L27.3138 27.3138L20.1758 26.0823L15.9989 32L11.8242 26.0823L4.68615 27.3138L5.9177 20.1758L0 15.9989L5.9177 11.8242L4.68615 4.68615L11.8242 5.9177L15.9989 0Z" fill="#4F17A8"></path><mask id="mask0_166_3__R5le_" style="mask-type: alpha;" maskUnits="userSpaceOnUse" x="0" y="0" width="32" height="32"><path d="M15.9989 0L20.1758 5.9177L27.3138 4.68615L26.0823 11.8242L32 15.9989L26.0823 20.1758L27.3138 27.3138L20.1758 26.0823L15.9989 32L11.8242 26.0823L4.68615 27.3138L5.9177 20.1758L0 15.9989L5.9177 11.8242L4.68615 4.68615L11.8242 5.9177L15.9989 0Z" fill="#4F17A8"></path></mask><g mask="url(#mask0_166_3__R5le_)"><circle cx="0.5" cy="15.5" r="14.5" fill="url(#paint0_radial_166_3__R5le_)"></circle><circle cx="15.5" cy="-0.5" r="18.5" fill="url(#paint1_radial_166_3__R5le_)"></circle></g><path fill-rule="evenodd" clip-rule="evenodd" d="M10.8301 10.8357C13.6835 10.8357 15.9963 13.1485 15.9963 16.0019C15.9963 18.8553 13.6835 21.1681 10.8301 21.1681V10.8357Z" fill="white"></path><path fill-rule="evenodd" clip-rule="evenodd" d="M21.1589 21.1668C18.3055 21.1668 15.9927 18.854 15.9927 16.0006C15.9927 13.1471 18.3055 10.8344 21.1589 10.8344V21.1668Z" fill="white"></path></g><defs><radialGradient id="paint0_radial_166_3__R5le_" cx="0" cy="0" r="1" gradientUnits="userSpaceOnUse" gradientTransform="translate(0.5 15.5) rotate(90) scale(14.5)"><stop stop-color="#05BFE0"></stop><stop offset="1" stop-color="#05BFE0" stop-opacity="0"></stop></radialGradient><radialGradient id="paint1_radial_166_3__R5le_" cx="0" cy="0" r="1" gradientUnits="userSpaceOnUse" gradientTransform="translate(15.5 -0.5) rotate(90) scale(18.5)"><stop stop-color="#FF610F"></stop><stop offset="1" stop-color="#FF610F" stop-opacity="0"></stop></radialGradient><clipPath id="clip0_166_3__R5le_"><rect width="32" height="32" fill="white"></rect></clipPath></defs></svg>
